<svg width="44" height="45" viewBox="0 0 44 45" fill="none" xmlns="http://www.w3.org/2000/svg">
<path d="M21.8738 40.6299C21.74 40.6787 21.5933 40.6787 21.4595 40.6299C19.6812 40.0066 7 35.0566 7 20.9619V8.22389C6.99962 8.06004 7.05411 7.90079 7.1548 7.77153C7.25548 7.64227 7.39655 7.55045 7.5555 7.51072L21.4888 4.02189C21.6056 3.9927 21.7277 3.9927 21.8445 4.02189L35.7778 7.51072C35.9368 7.55045 36.0779 7.64227 36.1785 7.77153C36.2792 7.90079 36.3337 8.06004 36.3333 8.22389V20.9619C36.3333 35.1977 23.654 40.0231 21.8738 40.6317V40.6299Z" stroke="white" stroke-width="1.5" stroke-miterlimit="10" stroke-linejoin="round"/>
<line x1="7.87891" y1="12.6969" x2="35.4547" y2="12.6969" stroke="white"/>
<path d="M13.7881 13.1969L13.7881 35.5301" stroke="white"/>
<path d="M19 12.6574L19 40" stroke="white"/>
<path d="M25 13L25 39" stroke="white"/>
<path d="M30.0381 13.1969L30.0381 35.5301" stroke="white"/>
</svg>
